<svg width="584" height="177" viewBox="0 0 584 177" fill="none" xmlns="http://www.w3.org/2000/svg">
<ellipse opacity="0.8" cx="3.85479" cy="2.85484" rx="3.85479" ry="2.85484" fill="#EEEEEE"/>
<ellipse opacity="0.8" cx="28.9114" cy="2.85484" rx="3.85479" ry="2.85484" fill="#EEEEEE"/>
<ellipse opacity="0.8" cx="53.9671" cy="2.85484" rx="3.85479" ry="2.85484" fill="#EEEEEE"/>
<ellipse opacity="0.8" cx="79.0237" cy="2.85484" rx="3.85479" ry="2.85484" fill="#EEEEEE"/>
<ellipse opacity="0.8" cx="104.079" cy="2.85484" rx="3.85479" ry="2.85484" fill="#EEEEEE"/>
<ellipse opacity="0.8" cx="129.136" cy="2.85484" rx="3.85479" ry="2.85484" fill="#EEEEEE"/>
<ellipse opacity="0.8" cx="154.191" cy="2.85484" rx="3.85479" ry="2.85484" fill="#EEEEEE"/>
<ellipse opacity="0.8" cx="179.247" cy="2.85484" rx="3.85479" ry="2.85484" fill="#EEEEEE"/>
<ellipse opacity="0.8" cx="204.303" cy="2.85484" rx="3.85479" ry="2.85484" fill="#EEEEEE"/>
<ellipse opacity="0.8" cx="229.36" cy="2.85484" rx="3.85479" ry="2.85484" fill="#EEEEEE"/>
<ellipse opacity="0.8" cx="254.415" cy="2.85484" rx="3.85479" ry="2.85484" fill="#EEEEEE"/>
<ellipse opacity="0.8" cx="279.472" cy="2.85484" rx="3.85479" ry="2.85484" fill="#EEEEEE"/>
<ellipse opacity="0.8" cx="304.529" cy="2.85484" rx="3.85479" ry="2.85484" fill="#EEEEEE"/>
<ellipse opacity="0.8" cx="329.584" cy="2.85484" rx="3.85479" ry="2.85484" fill="#EEEEEE"/>
<ellipse opacity="0.8" cx="354.641" cy="2.85484" rx="3.85479" ry="2.85484" fill="#EEEEEE"/>
<ellipse opacity="0.8" cx="379.697" cy="2.85484" rx="3.85479" ry="2.85484" fill="#EEEEEE"/>
<ellipse opacity="0.8" cx="404.752" cy="2.85484" rx="3.85479" ry="2.85484" fill="#EEEEEE"/>
<ellipse opacity="0.8" cx="429.808" cy="2.85484" rx="3.85479" ry="2.85484" fill="#EEEEEE"/>
<ellipse opacity="0.8" cx="454.865" cy="2.85484" rx="3.85479" ry="2.85484" fill="#EEEEEE"/>
<ellipse opacity="0.8" cx="479.92" cy="2.85484" rx="3.85479" ry="2.85484" fill="#EEEEEE"/>
<ellipse opacity="0.8" cx="504.977" cy="2.85484" rx="3.85479" ry="2.85484" fill="#EEEEEE"/>
<ellipse opacity="0.8" cx="530.034" cy="2.85484" rx="3.85479" ry="2.85484" fill="#EEEEEE"/>
<ellipse opacity="0.8" cx="555.089" cy="2.85484" rx="3.85479" ry="2.85484" fill="#EEEEEE"/>
<ellipse opacity="0.8" cx="580.146" cy="2.85484" rx="3.85479" ry="2.85484" fill="#EEEEEE"/>
<ellipse opacity="0.8" cx="3.85479" cy="24.2661" rx="3.85479" ry="2.85484" fill="#EEEEEE"/>
<ellipse opacity="0.8" cx="28.9114" cy="24.2661" rx="3.85479" ry="2.85484" fill="#EEEEEE"/>
<ellipse opacity="0.8" cx="53.9671" cy="24.2661" rx="3.85479" ry="2.85484" fill="#EEEEEE"/>
<ellipse opacity="0.8" cx="79.0237" cy="24.2661" rx="3.85479" ry="2.85484" fill="#EEEEEE"/>
<ellipse opacity="0.8" cx="104.079" cy="24.2661" rx="3.85479" ry="2.85484" fill="#EEEEEE"/>
<ellipse opacity="0.8" cx="129.136" cy="24.2661" rx="3.85479" ry="2.85484" fill="#EEEEEE"/>
<ellipse opacity="0.8" cx="154.191" cy="24.2661" rx="3.85479" ry="2.85484" fill="#EEEEEE"/>
<ellipse opacity="0.8" cx="179.247" cy="24.2661" rx="3.85479" ry="2.85484" fill="#EEEEEE"/>
<ellipse opacity="0.8" cx="204.303" cy="24.2661" rx="3.85479" ry="2.85484" fill="#EEEEEE"/>
<ellipse opacity="0.8" cx="229.36" cy="24.2661" rx="3.85479" ry="2.85484" fill="#EEEEEE"/>
<ellipse opacity="0.8" cx="254.415" cy="24.2661" rx="3.85479" ry="2.85484" fill="#EEEEEE"/>
<ellipse opacity="0.8" cx="279.472" cy="24.2661" rx="3.85479" ry="2.85484" fill="#EEEEEE"/>
<ellipse opacity="0.8" cx="304.529" cy="24.2661" rx="3.85479" ry="2.85484" fill="#EEEEEE"/>
<ellipse opacity="0.8" cx="329.584" cy="24.2661" rx="3.85479" ry="2.85484" fill="#EEEEEE"/>
<ellipse opacity="0.8" cx="354.641" cy="24.2661" rx="3.85479" ry="2.85484" fill="#EEEEEE"/>
<ellipse opacity="0.8" cx="379.697" cy="24.2661" rx="3.85479" ry="2.85484" fill="#EEEEEE"/>
<ellipse opacity="0.8" cx="404.752" cy="24.2661" rx="3.85479" ry="2.85484" fill="#EEEEEE"/>
<ellipse opacity="0.8" cx="429.808" cy="24.2661" rx="3.85479" ry="2.85484" fill="#EEEEEE"/>
<ellipse opacity="0.8" cx="454.865" cy="24.2661" rx="3.85479" ry="2.85484" fill="#EEEEEE"/>
<ellipse opacity="0.8" cx="479.92" cy="24.2661" rx="3.85479" ry="2.85484" fill="#EEEEEE"/>
<ellipse opacity="0.8" cx="504.977" cy="24.2661" rx="3.85479" ry="2.85484" fill="#EEEEEE"/>
<ellipse opacity="0.8" cx="530.034" cy="24.2661" rx="3.85479" ry="2.85484" fill="#EEEEEE"/>
<ellipse opacity="0.8" cx="555.089" cy="24.2661" rx="3.85479" ry="2.85484" fill="#EEEEEE"/>
<ellipse opacity="0.8" cx="580.146" cy="24.2661" rx="3.85479" ry="2.85484" fill="#EEEEEE"/>
<ellipse opacity="0.8" cx="3.85479" cy="45.6775" rx="3.85479" ry="2.85484" fill="#EEEEEE"/>
<ellipse opacity="0.8" cx="28.9114" cy="45.6775" rx="3.85479" ry="2.85484" fill="#EEEEEE"/>
<ellipse opacity="0.8" cx="53.9671" cy="45.6775" rx="3.85479" ry="2.85484" fill="#EEEEEE"/>
<ellipse opacity="0.8" cx="79.0237" cy="45.6775" rx="3.85479" ry="2.85484" fill="#EEEEEE"/>
<ellipse opacity="0.8" cx="104.079" cy="45.6775" rx="3.85479" ry="2.85484" fill="#EEEEEE"/>
<ellipse opacity="0.8" cx="129.136" cy="45.6775" rx="3.85479" ry="2.85484" fill="#EEEEEE"/>
<ellipse opacity="0.8" cx="154.191" cy="45.6775" rx="3.85479" ry="2.85484" fill="#EEEEEE"/>
<ellipse opacity="0.8" cx="179.247" cy="45.6775" rx="3.85479" ry="2.85484" fill="#EEEEEE"/>
<ellipse opacity="0.8" cx="204.303" cy="45.6775" rx="3.85479" ry="2.85484" fill="#EEEEEE"/>
<ellipse opacity="0.8" cx="229.36" cy="45.6775" rx="3.85479" ry="2.85484" fill="#EEEEEE"/>
<ellipse opacity="0.8" cx="254.415" cy="45.6775" rx="3.85479" ry="2.85484" fill="#EEEEEE"/>
<ellipse opacity="0.8" cx="279.472" cy="45.6775" rx="3.85479" ry="2.85484" fill="#EEEEEE"/>
<ellipse opacity="0.8" cx="304.529" cy="45.6775" rx="3.85479" ry="2.85484" fill="#EEEEEE"/>
<ellipse opacity="0.8" cx="329.584" cy="45.6775" rx="3.85479" ry="2.85484" fill="#EEEEEE"/>
<ellipse opacity="0.8" cx="354.641" cy="45.6775" rx="3.85479" ry="2.85484" fill="#EEEEEE"/>
<ellipse opacity="0.8" cx="379.697" cy="45.6775" rx="3.85479" ry="2.85484" fill="#EEEEEE"/>
<ellipse opacity="0.8" cx="404.752" cy="45.6775" rx="3.85479" ry="2.85484" fill="#EEEEEE"/>
<ellipse opacity="0.8" cx="429.808" cy="45.6775" rx="3.85479" ry="2.85484" fill="#EEEEEE"/>
<ellipse opacity="0.8" cx="454.865" cy="45.6775" rx="3.85479" ry="2.85484" fill="#EEEEEE"/>
<ellipse opacity="0.8" cx="479.92" cy="45.6775" rx="3.85479" ry="2.85484" fill="#EEEEEE"/>
<ellipse opacity="0.8" cx="504.977" cy="45.6775" rx="3.85479" ry="2.85484" fill="#EEEEEE"/>
<ellipse opacity="0.8" cx="530.034" cy="45.6775" rx="3.85479" ry="2.85484" fill="#EEEEEE"/>
<ellipse opacity="0.8" cx="555.089" cy="45.6775" rx="3.85479" ry="2.85484" fill="#EEEEEE"/>
<ellipse opacity="0.8" cx="580.146" cy="45.6775" rx="3.85479" ry="2.85484" fill="#EEEEEE"/>
<ellipse opacity="0.8" cx="3.85479" cy="67.0887" rx="3.85479" ry="2.85484" fill="#EEEEEE"/>
<ellipse opacity="0.8" cx="28.9114" cy="67.0887" rx="3.85479" ry="2.85484" fill="#EEEEEE"/>
<ellipse opacity="0.8" cx="53.9671" cy="67.0887" rx="3.85479" ry="2.85484" fill="#EEEEEE"/>
<ellipse opacity="0.8" cx="79.0237" cy="67.0887" rx="3.85479" ry="2.85484" fill="#EEEEEE"/>
<ellipse opacity="0.8" cx="104.079" cy="67.0887" rx="3.85479" ry="2.85484" fill="#EEEEEE"/>
<ellipse opacity="0.8" cx="129.136" cy="67.0887" rx="3.85479" ry="2.85484" fill="#EEEEEE"/>
<ellipse opacity="0.8" cx="154.191" cy="67.0887" rx="3.85479" ry="2.85484" fill="#EEEEEE"/>
<ellipse opacity="0.8" cx="179.247" cy="67.0887" rx="3.85479" ry="2.85484" fill="#EEEEEE"/>
<ellipse opacity="0.8" cx="204.303" cy="67.0887" rx="3.85479" ry="2.85484" fill="#EEEEEE"/>
<ellipse opacity="0.8" cx="229.36" cy="67.0887" rx="3.85479" ry="2.85484" fill="#EEEEEE"/>
<ellipse opacity="0.8" cx="254.415" cy="67.0887" rx="3.85479" ry="2.85484" fill="#EEEEEE"/>
<ellipse opacity="0.8" cx="279.472" cy="67.0887" rx="3.85479" ry="2.85484" fill="#EEEEEE"/>
<ellipse opacity="0.8" cx="304.529" cy="67.0887" rx="3.85479" ry="2.85484" fill="#EEEEEE"/>
<ellipse opacity="0.8" cx="329.584" cy="67.0887" rx="3.85479" ry="2.85484" fill="#EEEEEE"/>
<ellipse opacity="0.8" cx="354.641" cy="67.0887" rx="3.85479" ry="2.85484" fill="#EEEEEE"/>
<ellipse opacity="0.8" cx="379.697" cy="67.0887" rx="3.85479" ry="2.85484" fill="#EEEEEE"/>
<ellipse opacity="0.8" cx="404.752" cy="67.0887" rx="3.85479" ry="2.85484" fill="#EEEEEE"/>
<ellipse opacity="0.8" cx="429.808" cy="67.0887" rx="3.85479" ry="2.85484" fill="#EEEEEE"/>
<ellipse opacity="0.8" cx="454.865" cy="67.0887" rx="3.85479" ry="2.85484" fill="#EEEEEE"/>
<ellipse opacity="0.8" cx="479.92" cy="67.0887" rx="3.85479" ry="2.85484" fill="#EEEEEE"/>
<ellipse opacity="0.8" cx="504.977" cy="67.0887" rx="3.85479" ry="2.85484" fill="#EEEEEE"/>
<ellipse opacity="0.8" cx="530.034" cy="67.0887" rx="3.85479" ry="2.85484" fill="#EEEEEE"/>
<ellipse opacity="0.8" cx="555.089" cy="67.0887" rx="3.85479" ry="2.85484" fill="#EEEEEE"/>
<ellipse opacity="0.8" cx="580.146" cy="67.0887" rx="3.85479" ry="2.85484" fill="#EEEEEE"/>
<ellipse opacity="0.8" cx="3.85479" cy="88.5" rx="3.85479" ry="2.85484" fill="#EEEEEE"/>
<ellipse opacity="0.8" cx="28.9114" cy="88.5" rx="3.85479" ry="2.85484" fill="#EEEEEE"/>
<ellipse opacity="0.8" cx="53.9671" cy="88.5" rx="3.85479" ry="2.85484" fill="#EEEEEE"/>
<ellipse opacity="0.8" cx="79.0237" cy="88.5" rx="3.85479" ry="2.85484" fill="#EEEEEE"/>
<ellipse opacity="0.8" cx="104.079" cy="88.5" rx="3.85479" ry="2.85484" fill="#EEEEEE"/>
<ellipse opacity="0.8" cx="129.136" cy="88.5" rx="3.85479" ry="2.85484" fill="#EEEEEE"/>
<ellipse opacity="0.8" cx="154.191" cy="88.5" rx="3.85479" ry="2.85484" fill="#EEEEEE"/>
<ellipse opacity="0.8" cx="179.247" cy="88.5" rx="3.85479" ry="2.85484" fill="#EEEEEE"/>
<ellipse opacity="0.8" cx="204.303" cy="88.5" rx="3.85479" ry="2.85484" fill="#EEEEEE"/>
<ellipse opacity="0.8" cx="229.36" cy="88.5" rx="3.85479" ry="2.85484" fill="#EEEEEE"/>
<ellipse opacity="0.8" cx="254.415" cy="88.5" rx="3.85479" ry="2.85484" fill="#EEEEEE"/>
<ellipse opacity="0.8" cx="279.472" cy="88.5" rx="3.85479" ry="2.85484" fill="#EEEEEE"/>
<ellipse opacity="0.8" cx="304.529" cy="88.5" rx="3.85479" ry="2.85484" fill="#EEEEEE"/>
<ellipse opacity="0.8" cx="329.584" cy="88.5" rx="3.85479" ry="2.85484" fill="#EEEEEE"/>
<ellipse opacity="0.8" cx="354.641" cy="88.5" rx="3.85479" ry="2.85484" fill="#EEEEEE"/>
<ellipse opacity="0.8" cx="379.697" cy="88.5" rx="3.85479" ry="2.85484" fill="#EEEEEE"/>
<ellipse opacity="0.8" cx="404.752" cy="88.5" rx="3.85479" ry="2.85484" fill="#EEEEEE"/>
<ellipse opacity="0.8" cx="429.808" cy="88.5" rx="3.85479" ry="2.85484" fill="#EEEEEE"/>
<ellipse opacity="0.8" cx="454.865" cy="88.5" rx="3.85479" ry="2.85484" fill="#EEEEEE"/>
<ellipse opacity="0.8" cx="479.92" cy="88.5" rx="3.85479" ry="2.85484" fill="#EEEEEE"/>
<ellipse opacity="0.8" cx="504.977" cy="88.5" rx="3.85479" ry="2.85484" fill="#EEEEEE"/>
<ellipse opacity="0.8" cx="530.034" cy="88.5" rx="3.85479" ry="2.85484" fill="#EEEEEE"/>
<ellipse opacity="0.8" cx="555.089" cy="88.5" rx="3.85479" ry="2.85484" fill="#EEEEEE"/>
<ellipse opacity="0.8" cx="580.146" cy="88.5" rx="3.85479" ry="2.85484" fill="#EEEEEE"/>
<ellipse opacity="0.8" cx="3.85479" cy="109.911" rx="3.85479" ry="2.85484" fill="#EEEEEE"/>
<ellipse opacity="0.8" cx="28.9114" cy="109.911" rx="3.85479" ry="2.85484" fill="#EEEEEE"/>
<ellipse opacity="0.8" cx="53.9671" cy="109.911" rx="3.85479" ry="2.85484" fill="#EEEEEE"/>
<ellipse opacity="0.8" cx="79.0237" cy="109.911" rx="3.85479" ry="2.85484" fill="#EEEEEE"/>
<ellipse opacity="0.8" cx="104.079" cy="109.911" rx="3.85479" ry="2.85484" fill="#EEEEEE"/>
<ellipse opacity="0.8" cx="129.136" cy="109.911" rx="3.85479" ry="2.85484" fill="#EEEEEE"/>
<ellipse opacity="0.8" cx="154.191" cy="109.911" rx="3.85479" ry="2.85484" fill="#EEEEEE"/>
<ellipse opacity="0.8" cx="179.247" cy="109.911" rx="3.85479" ry="2.85484" fill="#EEEEEE"/>
<ellipse opacity="0.8" cx="204.303" cy="109.911" rx="3.85479" ry="2.85484" fill="#EEEEEE"/>
<ellipse opacity="0.8" cx="229.36" cy="109.911" rx="3.85479" ry="2.85484" fill="#EEEEEE"/>
<ellipse opacity="0.8" cx="254.415" cy="109.911" rx="3.85479" ry="2.85484" fill="#EEEEEE"/>
<ellipse opacity="0.8" cx="279.472" cy="109.911" rx="3.85479" ry="2.85484" fill="#EEEEEE"/>
<ellipse opacity="0.8" cx="304.529" cy="109.911" rx="3.85479" ry="2.85484" fill="#EEEEEE"/>
<ellipse opacity="0.8" cx="329.584" cy="109.911" rx="3.85479" ry="2.85484" fill="#EEEEEE"/>
<ellipse opacity="0.8" cx="354.641" cy="109.911" rx="3.85479" ry="2.85484" fill="#EEEEEE"/>
<ellipse opacity="0.8" cx="379.697" cy="109.911" rx="3.85479" ry="2.85484" fill="#EEEEEE"/>
<ellipse opacity="0.8" cx="404.752" cy="109.911" rx="3.85479" ry="2.85484" fill="#EEEEEE"/>
<ellipse opacity="0.8" cx="429.808" cy="109.911" rx="3.85479" ry="2.85484" fill="#EEEEEE"/>
<ellipse opacity="0.8" cx="454.865" cy="109.911" rx="3.85479" ry="2.85484" fill="#EEEEEE"/>
<ellipse opacity="0.8" cx="479.92" cy="109.911" rx="3.85479" ry="2.85484" fill="#EEEEEE"/>
<ellipse opacity="0.8" cx="504.977" cy="109.911" rx="3.85479" ry="2.85484" fill="#EEEEEE"/>
<ellipse opacity="0.8" cx="530.034" cy="109.911" rx="3.85479" ry="2.85484" fill="#EEEEEE"/>
<ellipse opacity="0.8" cx="555.089" cy="109.911" rx="3.85479" ry="2.85484" fill="#EEEEEE"/>
<ellipse opacity="0.8" cx="580.146" cy="109.911" rx="3.85479" ry="2.85484" fill="#EEEEEE"/>
<ellipse opacity="0.8" cx="3.85479" cy="131.323" rx="3.85479" ry="2.85484" fill="#EEEEEE"/>
<ellipse opacity="0.8" cx="28.9114" cy="131.323" rx="3.85479" ry="2.85484" fill="#EEEEEE"/>
<ellipse opacity="0.8" cx="53.9671" cy="131.323" rx="3.85479" ry="2.85484" fill="#EEEEEE"/>
<ellipse opacity="0.8" cx="79.0237" cy="131.323" rx="3.85479" ry="2.85484" fill="#EEEEEE"/>
<ellipse opacity="0.8" cx="104.079" cy="131.323" rx="3.85479" ry="2.85484" fill="#EEEEEE"/>
<ellipse opacity="0.8" cx="129.136" cy="131.323" rx="3.85479" ry="2.85484" fill="#EEEEEE"/>
<ellipse opacity="0.8" cx="154.191" cy="131.323" rx="3.85479" ry="2.85484" fill="#EEEEEE"/>
<ellipse opacity="0.8" cx="179.247" cy="131.323" rx="3.85479" ry="2.85484" fill="#EEEEEE"/>
<ellipse opacity="0.8" cx="204.303" cy="131.323" rx="3.85479" ry="2.85484" fill="#EEEEEE"/>
<ellipse opacity="0.8" cx="229.36" cy="131.323" rx="3.85479" ry="2.85484" fill="#EEEEEE"/>
<ellipse opacity="0.8" cx="254.415" cy="131.323" rx="3.85479" ry="2.85484" fill="#EEEEEE"/>
<ellipse opacity="0.8" cx="279.472" cy="131.323" rx="3.85479" ry="2.85484" fill="#EEEEEE"/>
<ellipse opacity="0.8" cx="304.529" cy="131.323" rx="3.85479" ry="2.85484" fill="#EEEEEE"/>
<ellipse opacity="0.8" cx="329.584" cy="131.323" rx="3.85479" ry="2.85484" fill="#EEEEEE"/>
<ellipse opacity="0.8" cx="354.641" cy="131.323" rx="3.85479" ry="2.85484" fill="#EEEEEE"/>
<ellipse opacity="0.8" cx="379.697" cy="131.323" rx="3.85479" ry="2.85484" fill="#EEEEEE"/>
<ellipse opacity="0.8" cx="404.752" cy="131.323" rx="3.85479" ry="2.85484" fill="#EEEEEE"/>
<ellipse opacity="0.8" cx="429.808" cy="131.323" rx="3.85479" ry="2.85484" fill="#EEEEEE"/>
<ellipse opacity="0.8" cx="454.865" cy="131.323" rx="3.85479" ry="2.85484" fill="#EEEEEE"/>
<ellipse opacity="0.8" cx="479.92" cy="131.323" rx="3.85479" ry="2.85484" fill="#EEEEEE"/>
<ellipse opacity="0.8" cx="504.977" cy="131.323" rx="3.85479" ry="2.85484" fill="#EEEEEE"/>
<ellipse opacity="0.8" cx="530.034" cy="131.323" rx="3.85479" ry="2.85484" fill="#EEEEEE"/>
<ellipse opacity="0.8" cx="555.089" cy="131.323" rx="3.85479" ry="2.85484" fill="#EEEEEE"/>
<ellipse opacity="0.8" cx="580.146" cy="131.323" rx="3.85479" ry="2.85484" fill="#EEEEEE"/>
<ellipse opacity="0.8" cx="3.85479" cy="152.734" rx="3.85479" ry="2.85484" fill="#EEEEEE"/>
<ellipse opacity="0.8" cx="28.9114" cy="152.734" rx="3.85479" ry="2.85484" fill="#EEEEEE"/>
<ellipse opacity="0.8" cx="53.9671" cy="152.734" rx="3.85479" ry="2.85484" fill="#EEEEEE"/>
<ellipse opacity="0.8" cx="79.0237" cy="152.734" rx="3.85479" ry="2.85484" fill="#EEEEEE"/>
<ellipse opacity="0.8" cx="104.079" cy="152.734" rx="3.85479" ry="2.85484" fill="#EEEEEE"/>
<ellipse opacity="0.8" cx="129.136" cy="152.734" rx="3.85479" ry="2.85484" fill="#EEEEEE"/>
<ellipse opacity="0.8" cx="154.191" cy="152.734" rx="3.85479" ry="2.85484" fill="#EEEEEE"/>
<ellipse opacity="0.8" cx="179.247" cy="152.734" rx="3.85479" ry="2.85484" fill="#EEEEEE"/>
<ellipse opacity="0.8" cx="204.303" cy="152.734" rx="3.85479" ry="2.85484" fill="#EEEEEE"/>
<ellipse opacity="0.8" cx="229.36" cy="152.734" rx="3.85479" ry="2.85484" fill="#EEEEEE"/>
<ellipse opacity="0.8" cx="254.415" cy="152.734" rx="3.85479" ry="2.85484" fill="#EEEEEE"/>
<ellipse opacity="0.8" cx="279.472" cy="152.734" rx="3.85479" ry="2.85484" fill="#EEEEEE"/>
<ellipse opacity="0.8" cx="304.529" cy="152.734" rx="3.85479" ry="2.85484" fill="#EEEEEE"/>
<ellipse opacity="0.8" cx="329.584" cy="152.734" rx="3.85479" ry="2.85484" fill="#EEEEEE"/>
<ellipse opacity="0.8" cx="354.641" cy="152.734" rx="3.85479" ry="2.85484" fill="#EEEEEE"/>
<ellipse opacity="0.8" cx="379.697" cy="152.734" rx="3.85479" ry="2.85484" fill="#EEEEEE"/>
<ellipse opacity="0.8" cx="404.752" cy="152.734" rx="3.85479" ry="2.85484" fill="#EEEEEE"/>
<ellipse opacity="0.8" cx="429.808" cy="152.734" rx="3.85479" ry="2.85484" fill="#EEEEEE"/>
<ellipse opacity="0.8" cx="454.865" cy="152.734" rx="3.85479" ry="2.85484" fill="#EEEEEE"/>
<ellipse opacity="0.8" cx="479.92" cy="152.734" rx="3.85479" ry="2.85484" fill="#EEEEEE"/>
<ellipse opacity="0.8" cx="504.977" cy="152.734" rx="3.85479" ry="2.85484" fill="#EEEEEE"/>
<ellipse opacity="0.8" cx="530.034" cy="152.734" rx="3.85479" ry="2.85484" fill="#EEEEEE"/>
<ellipse opacity="0.8" cx="555.089" cy="152.734" rx="3.85479" ry="2.85484" fill="#EEEEEE"/>
<ellipse opacity="0.8" cx="580.146" cy="152.734" rx="3.85479" ry="2.85484" fill="#EEEEEE"/>
<ellipse opacity="0.8" cx="3.85479" cy="174.145" rx="3.85479" ry="2.85484" fill="#EEEEEE"/>
<ellipse opacity="0.8" cx="28.9114" cy="174.145" rx="3.85479" ry="2.85484" fill="#EEEEEE"/>
<ellipse opacity="0.8" cx="53.9671" cy="174.145" rx="3.85479" ry="2.85484" fill="#EEEEEE"/>
<ellipse opacity="0.8" cx="79.0237" cy="174.145" rx="3.85479" ry="2.85484" fill="#EEEEEE"/>
<ellipse opacity="0.8" cx="104.079" cy="174.145" rx="3.85479" ry="2.85484" fill="#EEEEEE"/>
<ellipse opacity="0.8" cx="129.136" cy="174.145" rx="3.85479" ry="2.85484" fill="#EEEEEE"/>
<ellipse opacity="0.8" cx="154.191" cy="174.145" rx="3.85479" ry="2.85484" fill="#EEEEEE"/>
<ellipse opacity="0.8" cx="179.247" cy="174.145" rx="3.85479" ry="2.85484" fill="#EEEEEE"/>
<ellipse opacity="0.8" cx="204.303" cy="174.145" rx="3.85479" ry="2.85484" fill="#EEEEEE"/>
<ellipse opacity="0.8" cx="229.36" cy="174.145" rx="3.85479" ry="2.85484" fill="#EEEEEE"/>
<ellipse opacity="0.8" cx="254.415" cy="174.145" rx="3.85479" ry="2.85484" fill="#EEEEEE"/>
<ellipse opacity="0.8" cx="279.472" cy="174.145" rx="3.85479" ry="2.85484" fill="#EEEEEE"/>
<ellipse opacity="0.8" cx="304.529" cy="174.145" rx="3.85479" ry="2.85484" fill="#EEEEEE"/>
<ellipse opacity="0.8" cx="329.584" cy="174.145" rx="3.85479" ry="2.85484" fill="#EEEEEE"/>
<ellipse opacity="0.8" cx="354.641" cy="174.145" rx="3.85479" ry="2.85484" fill="#EEEEEE"/>
<ellipse opacity="0.8" cx="379.697" cy="174.145" rx="3.85479" ry="2.85484" fill="#EEEEEE"/>
<ellipse opacity="0.8" cx="404.752" cy="174.145" rx="3.85479" ry="2.85484" fill="#EEEEEE"/>
<ellipse opacity="0.8" cx="429.808" cy="174.145" rx="3.85479" ry="2.85484" fill="#EEEEEE"/>
<ellipse opacity="0.8" cx="454.865" cy="174.145" rx="3.85479" ry="2.85484" fill="#EEEEEE"/>
<ellipse opacity="0.8" cx="479.92" cy="174.145" rx="3.85479" ry="2.85484" fill="#EEEEEE"/>
<ellipse opacity="0.8" cx="504.977" cy="174.145" rx="3.85479" ry="2.85484" fill="#EEEEEE"/>
<ellipse opacity="0.8" cx="530.034" cy="174.145" rx="3.85479" ry="2.85484" fill="#EEEEEE"/>
<ellipse opacity="0.8" cx="555.089" cy="174.145" rx="3.85479" ry="2.85484" fill="#EEEEEE"/>
<ellipse opacity="0.8" cx="580.146" cy="174.145" rx="3.85479" ry="2.85484" fill="#EEEEEE"/>
</svg>
